<svg width="720" height="540" viewBox="0 0 720 540" xmlns="http://www.w3.org/2000/svg">
  <defs>
    <linearGradient id="bg" x1="0" y1="0" x2="1" y2="1">
      <stop offset="0" stop-color="#27313f"/>
      <stop offset="1" stop-color="#4c2f34"/>
    </linearGradient>
  </defs>
  <rect width="720" height="540" fill="url(#bg)"/>
  <rect x="90" y="120" width="540" height="300" rx="24" fill="#e7dcc5" opacity="0.18"/>
  <circle cx="210" cy="230" r="60" fill="#e2d3b4"/>
  <rect x="170" y="286" width="84" height="112" rx="22" fill="#d8c6a3"/>
  <circle cx="360" cy="210" r="74" fill="#f0e6d1"/>
  <rect x="308" y="286" width="106" height="136" rx="24" fill="#e7dcc5"/>
  <circle cx="518" cy="236" r="56" fill="#c68e76"/>
  <rect x="480" y="288" width="78" height="108" rx="22" fill="#b8725e"/>
  <path d="M252 248 C284 228, 314 228, 340 244" stroke="#7d3f33" stroke-width="10" fill="none"/>
  <path d="M380 246 C412 224, 446 224, 472 242" stroke="#7d3f33" stroke-width="10" fill="none"/>
  <line x1="288" y1="254" x2="160" y2="270" stroke="#2b2021" stroke-width="8"/>
  <line x1="432" y1="250" x2="570" y2="270" stroke="#2b2021" stroke-width="8"/>
  <text x="58" y="472" font-size="42" fill="#f6eddc" font-family="Georgia">Οικογένεια</text>
  <text x="58" y="512" font-size="24" fill="#dfd2be" font-family="Georgia">Σχέσεις φροντίδας, φόβου και απόρριψης</text>
</svg>
