<svg width="720" height="540" viewBox="0 0 720 540" xmlns="http://www.w3.org/2000/svg">
  <defs>
    <linearGradient id="wall" x1="0" y1="0" x2="1" y2="1">
      <stop offset="0" stop-color="#1f2730"/>
      <stop offset="1" stop-color="#3a4959"/>
    </linearGradient>
    <linearGradient id="floor" x1="0" y1="0" x2="1" y2="0">
      <stop offset="0" stop-color="#5a4032"/>
      <stop offset="1" stop-color="#8e6a52"/>
    </linearGradient>
  </defs>
  <rect width="720" height="540" fill="#15171b"/>
  <rect width="720" height="325" fill="url(#wall)"/>
  <rect y="325" width="720" height="215" fill="url(#floor)"/>
  <rect x="78" y="54" width="214" height="164" fill="#90a9bf" opacity="0.18"/>
  <rect x="98" y="74" width="174" height="124" fill="#1d2731" stroke="#dfe4d4" stroke-width="8"/>
  <line x1="185" y1="74" x2="185" y2="198" stroke="#dfe4d4" stroke-width="5"/>
  <line x1="98" y1="136" x2="272" y2="136" stroke="#dfe4d4" stroke-width="5"/>
  <rect x="426" y="88" width="180" height="256" rx="12" fill="#403026" stroke="#dbcdb4" stroke-width="10"/>
  <rect x="444" y="106" width="144" height="220" rx="6" fill="#5b4336"/>
  <circle cx="574" cy="218" r="7" fill="#f3e7cd"/>
  <rect x="330" y="334" width="330" height="78" rx="16" fill="#6f5c4d"/>
  <rect x="388" y="286" width="216" height="54" rx="10" fill="#cabca6"/>
  <path d="M42 440 L306 440" stroke="#f2c14e" stroke-width="8"/>
  <text x="50" y="485" font-size="58" fill="#f7efdf" font-family="Georgia">ΧΩΡΟΣ</text>
  <text x="52" y="520" font-size="24" fill="#eadfc9" font-family="Georgia">το δωμάτιο ως σκηνή εγκλωβισμού</text>
</svg>
