<svg width="720" height="540" viewBox="0 0 720 540" xmlns="http://www.w3.org/2000/svg">
  <defs>
    <linearGradient id="bg" x1="0" y1="0" x2="1" y2="1">
      <stop offset="0" stop-color="#13242f"/>
      <stop offset="1" stop-color="#6a2d2f"/>
    </linearGradient>
  </defs>
  <rect width="720" height="540" fill="url(#bg)"/>
  <rect x="58" y="80" width="604" height="340" rx="28" fill="#f2e4cb" opacity="0.12"/>
  <circle cx="188" cy="230" r="64" fill="#d8c39a"/>
  <rect x="142" y="288" width="92" height="126" rx="20" fill="#cdb084"/>
  <circle cx="362" cy="202" r="84" fill="#f3e8d4"/>
  <rect x="302" y="280" width="120" height="152" rx="24" fill="#ecddc3"/>
  <circle cx="548" cy="236" r="60" fill="#9f4c4d"/>
  <rect x="506" y="292" width="84" height="118" rx="20" fill="#7d363b"/>
  <path d="M258 256 C290 222, 324 218, 344 238" stroke="#ffcf70" stroke-width="10" fill="none"/>
  <path d="M384 246 C408 220, 440 218, 484 246" stroke="#ffcf70" stroke-width="10" fill="none"/>
  <path d="M270 164 L128 118" stroke="#1f1819" stroke-width="9"/>
  <path d="M456 170 L608 132" stroke="#1f1819" stroke-width="9"/>
  <path d="M86 450 L336 450" stroke="#ffcf70" stroke-width="8"/>
  <text x="48" y="490" font-size="56" fill="#fbf0dc" font-family="Georgia">ΟΙΚΟΓΕΝΕΙΑ</text>
  <text x="50" y="522" font-size="24" fill="#ead8be" font-family="Georgia">φροντίδα, φόβος, απομάκρυνση</text>
</svg>
